<svg id="Capa_1" data-name="Capa 1" xmlns="http://www.w3.org/2000/svg" viewBox="0 0 865.42 699.9"><defs><style>.cls-1{fill:#fff;}.cls-2{fill:#ba1c1a;}</style></defs><rect class="cls-1" x="0.5" y="404.48" width="139.85" height="116" rx="39.7"/><path class="cls-1" d="M355.22,438a39.24,39.24,0,0,1,39.2,39.2v36.6a39.24,39.24,0,0,1-39.2,39.2H294.78a39.24,39.24,0,0,1-39.2-39.2V477.2a39.24,39.24,0,0,1,39.2-39.2h60.44m0-1H294.78a40.2,40.2,0,0,0-40.2,40.2v36.6a40.2,40.2,0,0,0,40.2,40.2h60.44a40.2,40.2,0,0,0,40.2-40.2V477.2a40.2,40.2,0,0,0-40.2-40.2Z" transform="translate(-254.58 -33.02)"/><rect class="cls-1" x="200.42" y="559.56" width="116" height="139.85" rx="39.7"/><path class="cls-1" d="M531.3,593.08a39.24,39.24,0,0,1,39.2,39.2v60.44a39.24,39.24,0,0,1-39.2,39.2H494.7a39.24,39.24,0,0,1-39.2-39.2V632.28a39.24,39.24,0,0,1,39.2-39.2h36.6m0-1H494.7a40.2,40.2,0,0,0-40.2,40.2v60.44a40.2,40.2,0,0,0,40.2,40.2h36.6a40.2,40.2,0,0,0,40.2-40.2V632.28a40.2,40.2,0,0,0-40.2-40.2Z" transform="translate(-254.58 -33.02)"/><rect class="cls-1" x="376.5" y="392.48" width="139.85" height="116" rx="39.7"/><path class="cls-1" d="M731.22,426a39.24,39.24,0,0,1,39.2,39.2v36.6a39.24,39.24,0,0,1-39.2,39.2H670.78a39.24,39.24,0,0,1-39.2-39.2V465.2a39.24,39.24,0,0,1,39.2-39.2h60.44m0-1H670.78a40.2,40.2,0,0,0-40.2,40.2v36.6a40.2,40.2,0,0,0,40.2,40.2h60.44a40.2,40.2,0,0,0,40.2-40.2V465.2a40.2,40.2,0,0,0-40.2-40.2Z" transform="translate(-254.58 -33.02)"/><rect class="cls-1" x="200.42" y="201.44" width="116" height="139.85" rx="39.7"/><path class="cls-1" d="M531.29,235a39.25,39.25,0,0,1,39.2,39.21v60.44a39.24,39.24,0,0,1-39.2,39.2H494.7a39.25,39.25,0,0,1-39.21-39.2V274.17A39.26,39.26,0,0,1,494.7,235h36.59m0-1H494.7a40.21,40.21,0,0,0-40.21,40.21v60.44a40.2,40.2,0,0,0,40.21,40.2h36.59a40.2,40.2,0,0,0,40.2-40.2V274.17A40.2,40.2,0,0,0,531.29,234Z" transform="translate(-254.58 -33.02)"/><ellipse class="cls-1" cx="258.42" cy="450.48" rx="187.5" ry="179"/><path class="cls-1" d="M513,305a193.48,193.48,0,0,1,72.8,14,187.29,187.29,0,0,1,59.45,38.27A177.49,177.49,0,0,1,685.31,414a171.56,171.56,0,0,1,0,138.92,177.49,177.49,0,0,1-40.06,56.74A187.29,187.29,0,0,1,585.8,648a195.89,195.89,0,0,1-145.6,0,187.29,187.29,0,0,1-59.45-38.27A177.49,177.49,0,0,1,340.69,553a171.56,171.56,0,0,1,0-138.92,177.49,177.49,0,0,1,40.06-56.74A187.29,187.29,0,0,1,440.2,319,193.48,193.48,0,0,1,513,305m0-1c-103.83,0-188,80.36-188,179.5S409.17,663,513,663s188-80.36,188-179.5S616.83,304,513,304Z" transform="translate(-254.58 -33.02)"/><ellipse class="cls-2" cx="258.42" cy="450.48" rx="87.5" ry="83"/><path class="cls-1" d="M513,401c48,0,87,37,87,82.5S561,566,513,566s-87-37-87-82.5S465,401,513,401m0-1c-48.6,0-88,37.38-88,83.5S464.4,567,513,567s88-37.38,88-83.5S561.6,400,513,400Z" transform="translate(-254.58 -33.02)"/><path class="cls-1" d="M384.85,428.82a39.67,39.67,0,0,1-26-9.69l-45.69-39.58a39.71,39.71,0,0,1-4-56l24-27.66a39.7,39.7,0,0,1,56-4l45.69,39.58a39.71,39.71,0,0,1,4,56l-24,27.66a39.69,39.69,0,0,1-30,13.71Z" transform="translate(-254.58 -33.02)"/><path class="cls-1" d="M363.15,282.68a39.18,39.18,0,0,1,25.65,9.57l45.69,39.57a39.21,39.21,0,0,1,4,55.3L414.5,414.78a39.2,39.2,0,0,1-55.3,4l-45.69-39.57a39.21,39.21,0,0,1-4-55.3l23.95-27.66a39.19,39.19,0,0,1,29.65-13.54m0-1a40.09,40.09,0,0,0-30.4,13.88l-24,27.66a40.19,40.19,0,0,0,4.07,56.71l45.68,39.57a40.2,40.2,0,0,0,56.71-4.06l24-27.66a40.19,40.19,0,0,0-4.07-56.71L389.46,291.5a40,40,0,0,0-26.31-9.82Z" transform="translate(-254.58 -33.02)"/><path class="cls-1" d="M659.85,681.82a39.67,39.67,0,0,1-26-9.69l-45.69-39.58a39.74,39.74,0,0,1-4-56l24-27.66a39.7,39.7,0,0,1,56-4l45.69,39.58a39.74,39.74,0,0,1,4,56l-24,27.66a39.69,39.69,0,0,1-30,13.71Z" transform="translate(-254.58 -33.02)"/><path class="cls-1" d="M638.15,535.68a39.18,39.18,0,0,1,25.65,9.57l45.69,39.57a39.21,39.21,0,0,1,4,55.3l-24,27.66a39.2,39.2,0,0,1-55.3,4l-45.69-39.57a39.21,39.21,0,0,1-4-55.3l24-27.66a39.19,39.19,0,0,1,29.65-13.54m0-1a40.09,40.09,0,0,0-30.4,13.88l-24,27.66a40.19,40.19,0,0,0,4.07,56.71l45.68,39.57a40.2,40.2,0,0,0,56.71-4.06l24-27.66a40.19,40.19,0,0,0-4.07-56.71L664.46,544.5a40,40,0,0,0-26.31-9.82Z" transform="translate(-254.58 -33.02)"/><path class="cls-1" d="M375,692a39.74,39.74,0,0,1-26-9.7l-27.66-24a39.74,39.74,0,0,1-4-56L357,556.68a39.69,39.69,0,0,1,56-4l27.66,24a39.74,39.74,0,0,1,4,56l-39.58,45.69A39.69,39.69,0,0,1,375,692Z" transform="translate(-254.58 -33.02)"/><path class="cls-1" d="M387,543.47a39.13,39.13,0,0,1,25.65,9.58l27.66,24a39.2,39.2,0,0,1,4,55.3L404.68,678a39.19,39.19,0,0,1-55.3,4l-27.66-24a39.2,39.2,0,0,1-4-55.3L357.32,557A39.23,39.23,0,0,1,387,543.47m0-1a40.1,40.1,0,0,0-30.4,13.89L317,602a40.2,40.2,0,0,0,4.06,56.71l27.66,24a40.19,40.19,0,0,0,56.71-4.07L445,633a40.2,40.2,0,0,0-4.06-56.71l-27.66-24A40,40,0,0,0,387,542.47Z" transform="translate(-254.58 -33.02)"/><path class="cls-1" d="M636.57,424.51a39.45,39.45,0,0,1-28.08-11.63L582.62,387a39.75,39.75,0,0,1,0-56.15l42.74-42.74a39.7,39.7,0,0,1,56.15,0L707.38,314a39.75,39.75,0,0,1,0,56.15l-42.74,42.74A39.44,39.44,0,0,1,636.57,424.51Z" transform="translate(-254.58 -33.02)"/><path class="cls-1" d="M653.43,277a39,39,0,0,1,27.72,11.48L707,314.35a39.26,39.26,0,0,1,0,55.44l-42.74,42.74a39.21,39.21,0,0,1-55.44,0L583,386.65a39.26,39.26,0,0,1,0-55.44l42.74-42.74A39,39,0,0,1,653.43,277m0-1A40.09,40.09,0,0,0,625,287.77L582.27,330.5a40.21,40.21,0,0,0,0,56.86l25.87,25.87a40.2,40.2,0,0,0,56.86,0l42.73-42.73a40.21,40.21,0,0,0,0-56.86l-25.87-25.87A40.09,40.09,0,0,0,653.43,276Z" transform="translate(-254.58 -33.02)"/><rect class="cls-1" x="428.5" y="169.77" width="118.2" height="96.54" rx="39.7"/><path class="cls-1" d="M761.58,203.29a39.25,39.25,0,0,1,39.2,39.2v17.14a39.24,39.24,0,0,1-39.2,39.2h-38.8a39.24,39.24,0,0,1-39.2-39.2V242.49a39.24,39.24,0,0,1,39.2-39.2h38.8m0-1h-38.8a40.2,40.2,0,0,0-40.2,40.2v17.14a40.2,40.2,0,0,0,40.2,40.2h38.8a40.2,40.2,0,0,0,40.2-40.2V242.49a40.2,40.2,0,0,0-40.2-40.2Z" transform="translate(-254.58 -33.02)"/><rect class="cls-1" x="597.7" y="299.06" width="98.02" height="116.42" rx="39.7"/><path class="cls-1" d="M910.59,332.58a39.25,39.25,0,0,1,39.21,39.2v37A39.25,39.25,0,0,1,910.59,448H892a39.24,39.24,0,0,1-39.2-39.2v-37a39.24,39.24,0,0,1,39.2-39.2h18.61m0-1H892a40.2,40.2,0,0,0-40.2,40.2v37A40.2,40.2,0,0,0,892,449h18.61a40.2,40.2,0,0,0,40.21-40.2v-37a40.2,40.2,0,0,0-40.21-40.2Z" transform="translate(-254.58 -33.02)"/><rect class="cls-1" x="746.72" y="159.77" width="118.2" height="96.54" rx="39.7"/><path class="cls-1" d="M1079.8,193.29a39.24,39.24,0,0,1,39.2,39.2v17.13a39.25,39.25,0,0,1-39.2,39.21H1041a39.25,39.25,0,0,1-39.2-39.21V232.49a39.24,39.24,0,0,1,39.2-39.2h38.8m0-1H1041a40.2,40.2,0,0,0-40.2,40.2v17.13a40.2,40.2,0,0,0,40.2,40.21h38.8a40.2,40.2,0,0,0,40.2-40.21V232.49a40.2,40.2,0,0,0-40.2-40.2Z" transform="translate(-254.58 -33.02)"/><rect class="cls-1" x="597.7" y="0.5" width="98.02" height="116.42" rx="39.7"/><path class="cls-1" d="M910.59,34a39.24,39.24,0,0,1,39.2,39.2v37a39.24,39.24,0,0,1-39.2,39.2H892a39.25,39.25,0,0,1-39.21-39.2v-37A39.25,39.25,0,0,1,892,34h18.61m0-1H892a40.2,40.2,0,0,0-40.21,40.2v37A40.2,40.2,0,0,0,892,150.44h18.61a40.2,40.2,0,0,0,40.2-40.2v-37A40.2,40.2,0,0,0,910.59,33Z" transform="translate(-254.58 -33.02)"/><ellipse class="cls-1" cx="646.71" cy="208.04" rx="158.61" ry="149.15"/><path class="cls-1" d="M901.29,92.41c42.24,0,82,15.47,111.82,43.56s46.29,65.39,46.29,105.09-16.44,77-46.29,105.09-69.58,43.56-111.82,43.56-82-15.47-111.82-43.56-46.29-65.4-46.29-105.09S759.62,164,789.47,136,859,92.41,901.29,92.41m0-1c-87.88,0-159.11,67-159.11,149.65s71.23,149.65,159.11,149.65,159.11-67,159.11-149.65S989.16,91.41,901.29,91.41Z" transform="translate(-254.58 -33.02)"/><ellipse class="cls-2" cx="646.71" cy="208.04" rx="73.98" ry="69.11"/><path class="cls-1" d="M901.29,172.44c40.51,0,73.48,30.78,73.48,68.62s-33,68.61-73.48,68.61-73.48-30.78-73.48-68.61,33-68.62,73.48-68.62m0-1c-41.13,0-74.48,31.17-74.48,69.62s33.35,69.61,74.48,69.61,74.48-31.17,74.48-69.61-33.35-69.62-74.48-69.62Z" transform="translate(-254.58 -33.02)"/><path class="cls-1" d="M792.83,195.39a33.8,33.8,0,0,1-21.94-8.07l-38.67-33a32.69,32.69,0,0,1-3.39-46.57l20.28-23.05a33.87,33.87,0,0,1,47.3-3.34l38.66,33a32.67,32.67,0,0,1,3.39,46.57l-20.27,23a33.76,33.76,0,0,1-25.36,11.41Z" transform="translate(-254.58 -33.02)"/><path class="cls-1" d="M774.47,73.8a33.27,33.27,0,0,1,21.61,8l38.67,33a32.18,32.18,0,0,1,3.34,45.86l-20.28,23.05a33.38,33.38,0,0,1-46.6,3.29l-38.66-33a32.16,32.16,0,0,1-3.34-45.86l20.28-23a33.23,33.23,0,0,1,25-11.24m0-1a34.15,34.15,0,0,0-25.73,11.57l-20.28,23.06a33.18,33.18,0,0,0,3.44,47.28l38.66,33a34.37,34.37,0,0,0,48-3.39l20.28-23.05A33.18,33.18,0,0,0,835.4,114L796.73,81a34.15,34.15,0,0,0-22.26-8.19Z" transform="translate(-254.58 -33.02)"/><path class="cls-1" d="M1025.57,406.31a33.79,33.79,0,0,1-21.94-8.06l-38.66-33a32.67,32.67,0,0,1-3.39-46.57l20.27-23.06a33.9,33.9,0,0,1,47.3-3.34l38.66,33a32.67,32.67,0,0,1,3.39,46.57l-20.27,23.06a33.75,33.75,0,0,1-25.36,11.4Z" transform="translate(-254.58 -33.02)"/><path class="cls-1" d="M1007.21,284.73a33.32,33.32,0,0,1,21.61,7.94l38.67,33a32.19,32.19,0,0,1,3.34,45.86l-20.28,23.06a33.4,33.4,0,0,1-46.6,3.29l-38.66-33A32.19,32.19,0,0,1,962,319L982.23,296a33.22,33.22,0,0,1,25-11.23m0-1a34.17,34.17,0,0,0-25.73,11.57L961.2,318.36a33.18,33.18,0,0,0,3.44,47.28l38.67,33a34.39,34.39,0,0,0,48-3.39l20.28-23.06a33.18,33.18,0,0,0-3.44-47.28l-38.67-33a34.19,34.19,0,0,0-22.26-8.18Z" transform="translate(-254.58 -33.02)"/><path class="cls-1" d="M784.52,414.82a33.79,33.79,0,0,1-21.94-8.06l-23.41-20a32.67,32.67,0,0,1-3.39-46.57l33.49-38.08a33.87,33.87,0,0,1,47.3-3.34l23.41,20a32.69,32.69,0,0,1,3.39,46.57l-33.49,38.09a33.78,33.78,0,0,1-25.36,11.4Z" transform="translate(-254.58 -33.02)"/><path class="cls-1" d="M794.63,291.22a33.33,33.33,0,0,1,21.61,7.95l23.41,20A32.16,32.16,0,0,1,843,365L809.5,403.09a33.4,33.4,0,0,1-46.6,3.29l-23.41-20a32.17,32.17,0,0,1-3.33-45.86l33.49-38.08a33.23,33.23,0,0,1,25-11.24m0-1a34.16,34.16,0,0,0-25.74,11.58L735.4,339.88a33.17,33.17,0,0,0,3.45,47.28l23.4,20a34.4,34.4,0,0,0,48-3.39l33.49-38.09a33.18,33.18,0,0,0-3.44-47.28l-23.41-20a34.2,34.2,0,0,0-22.26-8.19Z" transform="translate(-254.58 -33.02)"/><path class="cls-1" d="M1005.87,191.79a33.55,33.55,0,0,1-23.71-9.67l-21.9-21.57a32.66,32.66,0,0,1,0-46.69l36.17-35.63a33.9,33.9,0,0,1,47.42,0l21.9,21.57a32.68,32.68,0,0,1,0,46.69l-36.17,35.63A33.58,33.58,0,0,1,1005.87,191.79Z" transform="translate(-254.58 -33.02)"/><path class="cls-1" d="M1020.14,69.06a33.07,33.07,0,0,1,23.36,9.53l21.9,21.57a32.19,32.19,0,0,1,0,46l-36.17,35.62a33.4,33.4,0,0,1-46.72,0l-21.9-21.57a32.15,32.15,0,0,1,0-46l36.17-35.63a33.07,33.07,0,0,1,23.36-9.53m0-1a34.19,34.19,0,0,0-24.06,9.81L959.91,113.5a33.17,33.17,0,0,0,0,47.41l21.9,21.57a34.41,34.41,0,0,0,48.12,0l36.17-35.63a33.16,33.16,0,0,0,0-47.4l-21.9-21.58a34.19,34.19,0,0,0-24.06-9.81Z" transform="translate(-254.58 -33.02)"/></svg>